<svg id="Layer_1" data-name="Layer 1" xmlns="http://www.w3.org/2000/svg" viewBox="0 0 1000 1000"><defs><style>.cls-1,.cls-2{fill:#262329;}.cls-2{opacity:0.35;}</style></defs><title>Untitled-1</title><circle class="cls-1" cx="607.44" cy="386.2" r="8.71"/><circle class="cls-2" cx="612.42" cy="391.17" r="8.71"/><circle class="cls-1" cx="563.26" cy="430.72" r="8.71"/><circle class="cls-2" cx="568.24" cy="435.7" r="8.71"/><circle class="cls-1" cx="607.65" cy="430.72" r="8.71"/><circle class="cls-2" cx="612.63" cy="435.7" r="8.71"/><circle class="cls-1" cx="519.08" cy="475.25" r="8.71"/><circle class="cls-2" cx="524.06" cy="480.23" r="8.71"/><circle class="cls-1" cx="563.47" cy="475.25" r="8.71"/><circle class="cls-2" cx="568.45" cy="480.23" r="8.71"/><circle class="cls-1" cx="607.86" cy="475.25" r="8.71"/><circle class="cls-2" cx="612.84" cy="480.23" r="8.71"/><circle class="cls-1" cx="474.9" cy="519.77" r="8.71"/><circle class="cls-2" cx="479.88" cy="524.75" r="8.71"/><circle class="cls-1" cx="519.29" cy="519.77" r="8.71"/><circle class="cls-2" cx="524.27" cy="524.75" r="8.71"/><circle class="cls-1" cx="563.68" cy="519.77" r="8.71"/><circle class="cls-2" cx="568.66" cy="524.75" r="8.71"/><circle class="cls-1" cx="608.06" cy="519.77" r="8.71"/><circle class="cls-2" cx="613.04" cy="524.75" r="8.71"/><circle class="cls-1" cx="430.72" cy="564.3" r="8.71"/><circle class="cls-2" cx="435.7" cy="569.28" r="8.71"/><circle class="cls-1" cx="475.11" cy="564.3" r="8.71"/><circle class="cls-2" cx="480.09" cy="569.28" r="8.71"/><circle class="cls-1" cx="519.5" cy="564.3" r="8.71"/><circle class="cls-2" cx="524.48" cy="569.28" r="8.71"/><circle class="cls-1" cx="563.88" cy="564.3" r="8.71"/><circle class="cls-2" cx="568.86" cy="569.28" r="8.71"/><circle class="cls-1" cx="608.27" cy="564.3" r="8.71"/><circle class="cls-2" cx="613.25" cy="569.28" r="8.71"/><circle class="cls-1" cx="386.54" cy="608.83" r="8.71"/><circle class="cls-2" cx="391.52" cy="613.8" r="8.71"/><circle class="cls-1" cx="430.93" cy="608.83" r="8.71"/><circle class="cls-2" cx="435.91" cy="613.8" r="8.71"/><circle class="cls-1" cx="475.32" cy="608.83" r="8.71"/><circle class="cls-2" cx="480.3" cy="613.8" r="8.71"/><circle class="cls-1" cx="519.7" cy="608.83" r="8.71"/><circle class="cls-2" cx="524.68" cy="613.8" r="8.71"/><circle class="cls-1" cx="564.09" cy="608.83" r="8.71"/><circle class="cls-2" cx="569.07" cy="613.8" r="8.71"/><circle class="cls-1" cx="608.48" cy="608.83" r="8.71"/><circle class="cls-2" cx="613.46" cy="613.8" r="8.71"/></svg>