<svg id="Layer_1" data-name="Layer 1" xmlns="http://www.w3.org/2000/svg" xmlns:xlink="http://www.w3.org/1999/xlink" viewBox="0 0 1000 1000"><defs><style>.cls-1{fill:url(#linear-gradient);}.cls-2{fill:url(#linear-gradient-2);}.cls-3{fill:url(#linear-gradient-3);}.cls-4{fill:url(#linear-gradient-4);}.cls-5{fill:url(#linear-gradient-5);}.cls-6{fill:url(#linear-gradient-6);}.cls-7{fill:url(#linear-gradient-7);}.cls-8{fill:url(#linear-gradient-8);}</style><linearGradient id="linear-gradient" x1="392.18" y1="353.68" x2="392.18" y2="427.57" gradientUnits="userSpaceOnUse"><stop offset="0" stop-color="#d32479"/><stop offset="1" stop-color="#a53075"/></linearGradient><linearGradient id="linear-gradient-2" x1="422.99" y1="384.93" x2="422.99" y2="458.82" xlink:href="#linear-gradient"/><linearGradient id="linear-gradient-3" x1="453.79" y1="416.18" x2="453.79" y2="490.07" xlink:href="#linear-gradient"/><linearGradient id="linear-gradient-4" x1="484.6" y1="447.43" x2="484.6" y2="521.32" xlink:href="#linear-gradient"/><linearGradient id="linear-gradient-5" x1="515.4" y1="478.68" x2="515.4" y2="552.57" xlink:href="#linear-gradient"/><linearGradient id="linear-gradient-6" x1="546.21" y1="509.93" x2="546.21" y2="583.82" xlink:href="#linear-gradient"/><linearGradient id="linear-gradient-7" x1="577.01" y1="541.18" x2="577.01" y2="615.07" xlink:href="#linear-gradient"/><linearGradient id="linear-gradient-8" x1="607.82" y1="572.43" x2="607.82" y2="646.32" xlink:href="#linear-gradient"/></defs><title>Untitled-1</title><polygon class="cls-1" points="429.09 353.68 368.56 353.68 355.28 353.68 355.28 427.57 368.56 427.57 368.56 367.07 429.09 367.07 429.09 353.68"/><polygon class="cls-2" points="459.89 384.93 399.36 384.93 386.08 384.93 386.08 458.82 399.36 458.82 399.36 398.32 459.89 398.32 459.89 384.93"/><polygon class="cls-3" points="490.7 416.18 430.17 416.18 416.89 416.18 416.89 490.07 430.17 490.07 430.17 429.57 490.7 429.57 490.7 416.18"/><polygon class="cls-4" points="521.5 447.43 460.97 447.43 447.69 447.43 447.69 521.32 460.97 521.32 460.97 460.82 521.5 460.82 521.5 447.43"/><polygon class="cls-5" points="552.31 478.68 491.78 478.68 478.5 478.68 478.5 552.57 491.78 552.57 491.78 492.07 552.31 492.07 552.31 478.68"/><polygon class="cls-6" points="583.11 509.93 522.58 509.93 509.3 509.93 509.3 583.82 522.58 583.82 522.58 523.33 583.11 523.33 583.11 509.93"/><polygon class="cls-7" points="613.92 541.18 553.39 541.18 540.11 541.18 540.11 615.07 553.39 615.07 553.39 554.58 613.92 554.58 613.92 541.18"/><polygon class="cls-8" points="644.72 572.43 584.19 572.43 570.91 572.43 570.91 646.32 584.19 646.32 584.19 585.83 644.72 585.83 644.72 572.43"/></svg>