<svg id="Layer_1" data-name="Layer 1" xmlns="http://www.w3.org/2000/svg" viewBox="0 0 1000 1000"><defs><style>.cls-1,.cls-2{fill:#262329;}.cls-2{opacity:0.35;}</style></defs><title>Untitled-1</title><circle class="cls-1" cx="431.31" cy="431.42" r="5.25"/><circle class="cls-2" cx="434.31" cy="434.42" r="5.25"/><circle class="cls-1" cx="458.06" cy="431.42" r="5.25"/><circle class="cls-2" cx="461.06" cy="434.42" r="5.25"/><circle class="cls-1" cx="484.81" cy="431.42" r="5.25"/><circle class="cls-2" cx="487.81" cy="434.42" r="5.25"/><circle class="cls-1" cx="511.56" cy="431.42" r="5.25"/><circle class="cls-2" cx="514.56" cy="434.42" r="5.25"/><circle class="cls-1" cx="538.31" cy="431.42" r="5.25"/><circle class="cls-2" cx="541.31" cy="434.42" r="5.25"/><circle class="cls-1" cx="565.06" cy="431.42" r="5.25"/><circle class="cls-2" cx="568.06" cy="434.42" r="5.25"/><circle class="cls-1" cx="431.44" cy="458.25" r="5.25"/><circle class="cls-2" cx="434.44" cy="461.25" r="5.25"/><circle class="cls-1" cx="458.19" cy="458.25" r="5.25"/><circle class="cls-2" cx="461.19" cy="461.25" r="5.25"/><circle class="cls-1" cx="484.94" cy="458.25" r="5.25"/><circle class="cls-2" cx="487.94" cy="461.25" r="5.25"/><circle class="cls-1" cx="511.69" cy="458.25" r="5.25"/><circle class="cls-2" cx="514.69" cy="461.25" r="5.25"/><circle class="cls-1" cx="538.44" cy="458.25" r="5.25"/><circle class="cls-2" cx="541.44" cy="461.25" r="5.25"/><circle class="cls-1" cx="565.19" cy="458.25" r="5.25"/><circle class="cls-2" cx="568.19" cy="461.25" r="5.25"/><circle class="cls-1" cx="431.56" cy="485.08" r="5.25"/><circle class="cls-2" cx="434.56" cy="488.08" r="5.25"/><circle class="cls-1" cx="458.31" cy="485.08" r="5.25"/><circle class="cls-2" cx="461.31" cy="488.08" r="5.25"/><circle class="cls-1" cx="485.06" cy="485.08" r="5.25"/><circle class="cls-2" cx="488.06" cy="488.08" r="5.25"/><circle class="cls-1" cx="511.81" cy="485.08" r="5.25"/><circle class="cls-2" cx="514.81" cy="488.08" r="5.25"/><circle class="cls-1" cx="538.56" cy="485.08" r="5.25"/><circle class="cls-2" cx="541.56" cy="488.08" r="5.25"/><circle class="cls-1" cx="565.31" cy="485.08" r="5.25"/><circle class="cls-2" cx="568.31" cy="488.08" r="5.25"/><circle class="cls-1" cx="431.69" cy="511.92" r="5.25"/><circle class="cls-2" cx="434.69" cy="514.92" r="5.25"/><circle class="cls-1" cx="458.44" cy="511.92" r="5.25"/><circle class="cls-2" cx="461.44" cy="514.92" r="5.25"/><circle class="cls-1" cx="485.19" cy="511.92" r="5.25"/><circle class="cls-2" cx="488.19" cy="514.92" r="5.25"/><circle class="cls-1" cx="511.94" cy="511.92" r="5.25"/><circle class="cls-2" cx="514.94" cy="514.92" r="5.25"/><circle class="cls-1" cx="538.69" cy="511.92" r="5.25"/><circle class="cls-2" cx="541.69" cy="514.92" r="5.25"/><circle class="cls-1" cx="565.44" cy="511.92" r="5.25"/><circle class="cls-2" cx="568.44" cy="514.92" r="5.25"/><circle class="cls-1" cx="431.81" cy="538.75" r="5.25"/><circle class="cls-2" cx="434.81" cy="541.75" r="5.25"/><circle class="cls-1" cx="458.56" cy="538.75" r="5.25"/><circle class="cls-2" cx="461.56" cy="541.75" r="5.25"/><circle class="cls-1" cx="485.31" cy="538.75" r="5.25"/><circle class="cls-2" cx="488.31" cy="541.75" r="5.25"/><circle class="cls-1" cx="512.06" cy="538.75" r="5.25"/><circle class="cls-2" cx="515.06" cy="541.75" r="5.25"/><circle class="cls-1" cx="538.81" cy="538.75" r="5.25"/><circle class="cls-2" cx="541.81" cy="541.75" r="5.25"/><circle class="cls-1" cx="565.56" cy="538.75" r="5.25"/><circle class="cls-2" cx="568.56" cy="541.75" r="5.25"/><circle class="cls-1" cx="431.94" cy="565.58" r="5.25"/><circle class="cls-2" cx="434.94" cy="568.58" r="5.25"/><circle class="cls-1" cx="458.69" cy="565.58" r="5.25"/><circle class="cls-2" cx="461.69" cy="568.58" r="5.25"/><circle class="cls-1" cx="485.44" cy="565.58" r="5.25"/><circle class="cls-2" cx="488.44" cy="568.58" r="5.25"/><circle class="cls-1" cx="512.19" cy="565.58" r="5.25"/><circle class="cls-2" cx="515.19" cy="568.58" r="5.25"/><circle class="cls-1" cx="538.94" cy="565.58" r="5.25"/><circle class="cls-2" cx="541.94" cy="568.58" r="5.25"/><circle class="cls-1" cx="565.69" cy="565.58" r="5.25"/><circle class="cls-2" cx="568.69" cy="568.58" r="5.25"/></svg>