<svg id="Layer_1" data-name="Layer 1" xmlns="http://www.w3.org/2000/svg" viewBox="0 0 1200 1200" style=""><defs><style>.cls-1{isolation:isolate;}.cls-2,.cls-3,.cls-5{fill:none;stroke:#343433;stroke-miterlimit:10;}.cls-2{stroke-width:3px;}.cls-3{stroke-width:4px;}.cls-4{fill:#343433;}.cls-5{stroke-width:10px;}</style></defs><title>Buzz09 logo ( SVG ) fonts image-01</title>
<g class="cls-1">
<path class="cls-2 DIScCXYq_0" d="M676.91,437.23a128.24,128.24,0,0,1,35.82,4.94,86.73,86.73,0,0,1,29.89,15.07,74.39,74.39,0,0,1,20.51,25.44q7.65,15.33,7.65,36.07,0,17.31-3.45,28.66a69.66,69.66,0,0,1-8.9,19.27,56.22,56.22,0,0,1-11.86,12.85,117.39,117.39,0,0,1-12.35,8.4q6.42,4.44,16.06,11.36a94.74,94.74,0,0,1,18.77,18.53q9.15,11.61,15.57,28.66T791,687.74q0,26.19-8.64,45.7a88,88,0,0,1-24,32.36,99.49,99.49,0,0,1-36.07,19,157.27,157.27,0,0,1-45,6.17,90.3,90.3,0,0,1-20.51-2.47,124.33,124.33,0,0,1-21-6.92,144.68,144.68,0,0,1-19.51-10.12,129.5,129.5,0,0,1-16.06-11.62v27.18h-50.4V481.7q0-11.37-5.93-16.8a33.51,33.51,0,0,0-14.33-7.66,65.13,65.13,0,0,0-18.28-2q-9.87.25-17.79.25V441.18H600.32v19.27a53.57,53.57,0,0,1,15.56-10.38,116.24,116.24,0,0,1,20.51-7.16,206.08,206.08,0,0,1,21.49-4.2A138.76,138.76,0,0,1,676.91,437.23ZM600.32,586.94a129.91,129.91,0,0,1,46.2-11.61,250.82,250.82,0,0,1,46.2.74,55.51,55.51,0,0,0,18.77-24.21,76.5,76.5,0,0,0,6.43-29.65,69.43,69.43,0,0,0-4-23.47,61.67,61.67,0,0,0-11.11-19.51,53.19,53.19,0,0,0-17.3-13.35,51.91,51.91,0,0,0-23-4.94q-17.31,0-29.16,5.44A52.57,52.57,0,0,0,614.15,481a56.07,56.07,0,0,0-10.62,21.24,96.56,96.56,0,0,0-3.21,24.95Zm0,57.31a420.65,420.65,0,0,0,2.22,42.25A133.39,133.39,0,0,0,612.92,727a78.68,78.68,0,0,0,23.47,30.63q15.3,12.12,42,12.11,16.3,0,27.42-6.92a57.87,57.87,0,0,0,18.28-18,74.51,74.51,0,0,0,10.13-24.95,131.42,131.42,0,0,0,3-27.67A124,124,0,0,0,732,656.85,104.4,104.4,0,0,0,716.43,625a82.43,82.43,0,0,0-25.69-23.23q-15.32-8.89-35.08-8.89-24.21,0-39.78,12.35T600.32,644.25Z"></path>
</g>
<path class="cls-3 DIScCXYq_1" d="M225.89,540.73c-12.66,0-24.85-4.53-34.07-8.47-7.4-2.9-14.91-6.39-21.51-9.5l-7-3.24a12.95,12.95,0,0,1-1.48-22.73,39.38,39.38,0,0,1,14.8-5.51,46.85,46.85,0,0,1,7.1-.54c22.41,0,43.76,14.9,54.11,28.76a12.5,12.5,0,0,1,2.81,6.18,13,13,0,0,1-10.75,14.83h-.11c-.5.07-1,.12-1.47.14-.71,0-1.58.06-2.46.06Z"></path>

<path class="cls-3 DIScCXYq_2" d="M253,345a12.94,12.94,0,0,1-7.23-2.21c-2.18-1.48-6-2.67-9.63-3.82-2-.61-3.95-1.23-5.87-1.92-8.31-3-17.15-6.6-27.8-11.24a492.84,492.84,0,0,1-44.75-24.13,12.94,12.94,0,0,1,5-24,58.77,58.77,0,0,1,7.5-.47c16.42,0,32.77,6.16,48,12.82a161.82,161.82,0,0,1,25.68,14.43l.71.49c7,4.94,16.58,11.67,20.38,22.1a11.05,11.05,0,0,1,.84,2.93,12.94,12.94,0,0,1-10.57,14.78H255A14.15,14.15,0,0,1,253,345Z"></path><path class="cls-3 DIScCXYq_3" d="M391.93,212.94a12.94,12.94,0,0,1-10.6-5.52c-4.07-5.8-8.41-11.63-12.58-17.25l-.55-.74c-5.65-7.61-11.49-15.47-16.95-23.63q-7.83-12.13-14.69-23.38-1.44-2.37-2.85-4.82c-3-5.07-5.63-9.63-8.76-13.21a12.92,12.92,0,0,1,12.49-21.16c10.06,2.17,18,8.63,25.08,15.29a143.48,143.48,0,0,1,20.25,24.21,155.24,155.24,0,0,1,15.36,28.45c3.7,9.1,7.07,18.93,6.73,29.24a12.94,12.94,0,0,1-9.24,12,16.07,16.07,0,0,1-1.67.37,12.17,12.17,0,0,1-2,.16Z"></path>
<path class="cls-3 DIScCXYq_4" d="M628,137.88a13,13,0,0,1-11.93-9c-5.48-17.16-6.83-38-3.67-57.25,2.39-14.54,6.46-33.43,16.89-50.47a12.94,12.94,0,0,1,23.87,5.17c2.18,17.35,0,35.3-2.35,52.22-1.75,16.74-4,34.63-10.32,51.06a13,13,0,0,1-10,8.12,13.36,13.36,0,0,1-2,.15Z"></path>
<path class="cls-3 DIScCXYq_5" d="M850.36,250.18a12.91,12.91,0,0,1-13-12.82v-.07a12.59,12.59,0,0,1,.59-3.9c6.59-21.29,23-36.75,34.85-46.53a208.28,208.28,0,0,1,48.26-30.25,12.61,12.61,0,0,1,5.2-1.1,13,13,0,0,1,11.27,19.32c-9.29,16.45-23.66,28.92-37.58,40.24-13.2,10.77-27.44,22.18-42.1,32.69a13.16,13.16,0,0,1-5.51,2.26,13.37,13.37,0,0,1-2,.16Z"></path><path class="cls-3 DIScCXYq_6" d="M961.24,404a61.34,61.34,0,0,1-9.18-.66,12.94,12.94,0,0,1-5.13-23.65,273.33,273.33,0,0,1,40.36-21.41c10-4.32,20.51-7.72,29.77-10.75,4.94-1.62,10-3.28,15-5A13,13,0,0,1,1047.77,361c-8.5,15.5-25.92,24.81-41.85,31.87-12,5.32-22.62,8.67-32.45,10.23a79.28,79.28,0,0,1-12.21,1Z"></path>
<path class="cls-3 DIScCXYq_7" d="M1020.66,604.07c-12.54,0-24.91-2.77-35.84-5.2l-1.29-.26c-12-2.51-25.5-5.32-37.51-10.93a12.95,12.95,0,0,1,.17-23.54,65.47,65.47,0,0,1,16.54-4.85,76.2,76.2,0,0,1,12.25-1c22.09,0,43.66,8.72,57.73,23.33a12.51,12.51,0,0,1,3.91,7.37,13,13,0,0,1-10.71,14.8,2,2,0,0,0-.34.06c-.45.06-.76.07-1.08.1-1.32.06-2.58.09-3.83.09Z"></path><path class="cls-4 DIScCXYq_8" d="M446.14,960.68l-7.33-69.51v-.12a172.41,172.41,0,0,0-.5-18.73c-.46-6.24-1.21-12.45-2.18-18.62A206.9,206.9,0,0,0,427,817.43a173.28,173.28,0,0,0-7.13-17.25c-2.66-5.6-5.75-11.06-8.93-16.4a280.87,280.87,0,0,0-21.41-30.67c-3.91-4.83-8-9.53-12.33-14q-3.24-3.35-6.67-6.45c-2.29-2.11-4.6-4-7.15-6.05s-4.68-4.39-6.94-6.65-4.43-4.55-6.58-6.88q-6.47-7-12.44-14.39c-15.95-19.7-29.55-41.51-39-65.28l.09.21c-1.65-3.59-3-7-4.39-10.62s-2.58-7.13-3.77-10.73q-3.54-10.8-6.18-21.85a307.82,307.82,0,0,1-7.38-44.77c-.69-7.55-1-15.12-1.13-22.7s.11-15.18.67-22.74c.11-1.91.28-3.78.46-5.64s.38-3.77.49-5.57c.3-3.8.68-7.56,1.1-11.31q1.29-11.26,3.1-22.43a454.71,454.71,0,0,1,22.92-87.53q4.05-10.62,8.78-21c.79-1.73,1.63-3.43,2.44-5.15l1.23-2.57,1.3-2.53,2.62-5.07,2.76-5c1.84-3.35,3.81-6.47,5.72-9.78s4.15-6.54,6.36-9.68c4.42-6.25,9.16-12.23,14.13-18a291.07,291.07,0,0,1,69.59-58.48A308,308,0,0,1,460,209.89q10.51-4.41,21.32-8.06,5.39-1.83,10.85-3.46c3.67-1.15,7.19-2,10.76-3.12,7.43-2.21,14.82-3.9,22.3-5.37s15-2.63,22.5-3.57a352,352,0,0,1,45.43-2.59A341.47,341.47,0,0,1,683,196.41a333.73,333.73,0,0,1,83.25,36.33,356.18,356.18,0,0,1,37.23,26.1c1.49,1.18,2.92,2.4,4.39,3.59l2.18,1.8,1.09.9,1.13,1c2.92,2.51,5.71,5.09,8.47,7.7,5.51,5.23,10.81,10.65,16,16.2a391.73,391.73,0,0,1,28.87,35,356.77,356.77,0,0,1,24.47,38.28,306,306,0,0,1,19,41.35,259.69,259.69,0,0,1,12.07,43.95c.35,1.86.63,3.75.94,5.63s.53,3.7.8,5.56c.61,3.79,1,7.66,1.3,11.45.57,7.61.76,15.21.64,22.79a338.3,338.3,0,0,1-3.8,45.22,399.92,399.92,0,0,1-9.28,44.32c-2,7.26-4.09,14.57-6.43,21.64l-.87,2.67c-.14.45-.29.89-.4,1.28l-.42,1.39c-.56,1.82-1.15,3.62-1.75,5.42-1.21,3.59-2.48,7.14-3.8,10.68A408.63,408.63,0,0,1,879.85,668a378.62,378.62,0,0,1-22.78,39.05c-8.45,12.41-17,24.72-25.71,36.89s-17.64,24.25-27.16,35.92l-.07.09-.1.1a120.62,120.62,0,0,0-8.29,9.22c-2.65,3.22-5.18,6.55-7.62,10a224.27,224.27,0,0,0-13.44,21.2,253.22,253.22,0,0,0-20.08,46.08c-1.32,4-2.43,8.07-3.66,12.08s-2.18,8.11-3.1,12.21q-2.77,12.31-4.45,24.85a245.89,245.89,0,0,0-1.72,50.45,246.65,246.65,0,0,1,.52-50.6q1.37-12.62,3.91-25.07c.85-4.15,1.8-8.28,2.89-12.38s2.18-8.16,3.44-12.21a252.79,252.79,0,0,1,19.39-47,228.29,228.29,0,0,1,13.29-21.76c2.43-3.49,4.95-6.93,7.6-10.27a125.86,125.86,0,0,1,8.48-9.73l-.17.19c9.21-11.68,17.84-23.88,26.38-36.13s16.9-24.67,25.12-37.1a372.91,372.91,0,0,0,21.93-38.75,401.69,401.69,0,0,0,17.42-41c1.25-3.49,2.46-7,3.59-10.51.56-1.76,1.11-3.52,1.63-5.28l.38-1.31c.13-.5.29-.95.42-1.39l.84-2.68c2.3-7.16,4.27-14.25,6.16-21.44a390.35,390.35,0,0,0,8.7-43.59A330.94,330.94,0,0,0,916.9,494c0-7.38-.21-14.75-.83-22.06-.32-3.66-.72-7.23-1.33-10.83-.28-1.84-.54-3.72-.84-5.54s-.6-3.62-1-5.43a256.73,256.73,0,0,0-12-42.43,297.32,297.32,0,0,0-18.69-40.05,347.34,347.34,0,0,0-24-37.18,383.2,383.2,0,0,0-28.38-34.05c-5.06-5.39-10.26-10.64-15.63-15.69-2.68-2.52-5.42-5-8.16-7.35l-1-.86-1.08-.88-2.14-1.77c-1.44-1.17-2.86-2.37-4.31-3.51A345.23,345.23,0,0,0,761.26,241a323.83,323.83,0,0,0-80.88-35.11A333.5,333.5,0,0,0,593,193.7a342.54,342.54,0,0,0-44.14,2.44c-7.32.9-14.61,2-21.83,3.42s-14.42,3-21.34,5.09c-3.57,1.12-7.33,2-10.8,3.11s-7,2.16-10.53,3.34q-10.49,3.51-20.68,7.77a298.54,298.54,0,0,0-39.38,19.93,292.29,292.29,0,0,0-35.95,25.57,275.58,275.58,0,0,0-31.59,30.75c-4.83,5.53-9.42,11.27-13.68,17.22-2.12,3-4.17,6-6,9s-3.89,6.35-5.67,9.55l-2.69,4.81-2.55,4.89-1.28,2.45-1.2,2.49c-.8,1.66-1.63,3.3-2.4,5q-4.65,10.05-8.66,20.38c-10.64,27.59-17.95,56.5-23,85.74q-1.89,11-3.26,22c-.45,3.67-.85,7.36-1.17,11-.14,1.93-.37,3.73-.55,5.6s-.38,3.72-.5,5.55c-.62,7.35-.86,14.73-.86,22.11s.29,14.76.9,22.13a300.07,300.07,0,0,0,6.8,43.78q2.49,10.81,5.81,21.4c1.11,3.53,2.28,7,3.54,10.49s2.61,7,4,10.18l.07.15,0,.06c8.84,23.11,21.85,44.64,37.25,64.18,3.86,4.88,7.86,9.66,12,14.28q3.12,3.46,6.37,6.82c2.14,2.22,4.39,4.47,6.58,6.49s4.84,4.05,7.14,6.24,4.59,4.44,6.76,6.76c4.38,4.63,8.48,9.5,12.39,14.49a284.68,284.68,0,0,1,21.21,31.48c3.16,5.5,6.18,11,8.82,16.84a173.34,173.34,0,0,1,7,17.7,210.38,210.38,0,0,1,8.53,36.93c.85,6.26,1.48,12.55,1.82,18.85a173.73,173.73,0,0,1,.13,19V891Z"></path><path class="cls-5 DIScCXYq_9" d="M561,952.75s18.82-8.51,22.28-52.26c0,0,6.06-40.21-37-57.23,0,0-19.48-6.48-18.63,15.75,0,0,4,34.31,27.94,30.78,0,0,15.3-.07,28-38.68,0,0,6.42-17.86,7.68-34.61a53.28,53.28,0,0,0-1.2-29.45"></path><path class="cls-4 DIScCXYq_10" d="M585,441.18c-.49-5.71-1-11.41-1.64-17.1s-1.23-11.38-2-17.05c-1.45-11.33-3.06-22.64-5.22-33.82l-1.66-8.36-1.89-8.29c-.74-2.73-1.41-5.46-2.2-8.18s-1.72-5.44-2.5-8.16a85.45,85.45,0,0,0-6.29-15.17,44.11,44.11,0,0,0-4.38-6.54,21,21,0,0,0-5.35-4.66l-.24-.14c-.13-.08-.45-.27-.7-.4l-.82-.4a16.57,16.57,0,0,0-1.66-.68,10.17,10.17,0,0,0-3.1-.63,3.18,3.18,0,0,0-1.92.46,3.82,3.82,0,0,0-1.2,1.6l.39-1.38c0-.06,0-.13,0-.2V312a.29.29,0,0,1,0,.09c0,.08,0,.18.08.29a5.4,5.4,0,0,0,.3.76,7.33,7.33,0,0,0,.53.85l.31.43.38.42a17.5,17.5,0,0,0,4.08,3.1,35.8,35.8,0,0,0,5.3,2.32c.94.32,1.87.66,2.87.91l1.47.41.72.2.66.15a83.43,83.43,0,0,0,12.28,1.53,101.72,101.72,0,0,0,12.47-.08,98.18,98.18,0,0,0,12.29-1.68l2.92-.62,3-.87q3.06-.92,6.11-1.91c4-1.33,8-2.78,11.82-4.39a47.92,47.92,0,0,0,5.27-2.62,13.85,13.85,0,0,0,1.91-1.34l.16-.14.09-.1.09-.09s0,0,0,0a2.29,2.29,0,0,0-.3,1.22l.73,2.72c.08.13,0,.06,0,0l-.08-.11a2.53,2.53,0,0,0-.23-.26,6,6,0,0,0-.56-.57,8.74,8.74,0,0,0-1.35-1,11.64,11.64,0,0,0-3.26-1.42,15.32,15.32,0,0,0-3.82-.43c-.66,0-1.36.09-2,.11l-2.1.33.4-.1a19.34,19.34,0,0,0-5,2.25c-.24.18-.4.35-.38.32a1.6,1.6,0,0,0,.17-.29,3,3,0,0,0,.21-.91,3.84,3.84,0,0,0,0-.59,2.86,2.86,0,0,0-.07-.28.9.9,0,0,0-.06-.22.72.72,0,0,0-.09-.2c0-.05,0-.09,0-.13s-.13-.17-.12-.18l0-.05s0,0,0,0,.17.12.23.19a22,22,0,0,0,2.46,1.34c1,.51,2,1,3.07,1.47,2.09.93,4.21,1.83,6.36,2.65a123.16,123.16,0,0,0,13.17,4.24c2.22.61,4.48,1.08,6.73,1.58s4.53.86,6.82,1.14,4.56.57,6.84.81c1,.12,2.19.14,3.33.17s2.29,0,3.44,0A91.8,91.8,0,0,0,676,322.44a41.79,41.79,0,0,0,12.38-3.73,16.46,16.46,0,0,0,4.55-3.34,9.65,9.65,0,0,0,2.34-4.35l0,1.54c0,.21,0,.11,0,.12s0-.05,0-.08-.06-.12-.08-.19-.07-.1-.09-.16-.07-.07-.09-.12-.08,0-.1-.09-.06-.06-.11-.08-.07-.07-.16-.08a.73.73,0,0,1-.24-.07,7.81,7.81,0,0,0-3.88.62l-1.2.47c-.4.16-.82.4-1.22.6l-1.23.61-1.23.74c-1.65.93-3.23,2.13-4.84,3.24l-.48.31.21-.13h0l-.19.16-.47.47a15,15,0,0,0-1,1.26,29.43,29.43,0,0,0-1.91,3,60.1,60.1,0,0,0-3.24,6.86,145.74,145.74,0,0,0-5,14.82c-1.39,5.08-2.73,10.2-3.73,15.33L662,376c-1.92,10.52-3.62,21.07-5.27,31.62-.84,5.28-1.54,10.57-2.22,15.87s-1.21,10.62-1.39,16c-.59-10.71.19-21.46,1-32.14s2-21.35,3.27-32c.62-5.33,1.32-10.64,2.05-16s1.91-10.73,3.1-16a136,136,0,0,1,4.58-15.79,66.15,66.15,0,0,1,3.36-7.76,35.36,35.36,0,0,1,2.25-3.83,21.83,21.83,0,0,1,1.44-1.92c.29-.33.58-.65.91-1l.56-.51a4.33,4.33,0,0,1,.37-.3l.19-.14.42-.26-.48.31c1.76-1.3,3.44-2.66,5.35-3.84.47-.31.93-.62,1.41-.91l1.51-.83c.52-.27,1-.57,1.54-.82l1.67-.71c.28-.12.55-.25.84-.35l.93-.28.94-.27a4.7,4.7,0,0,1,1-.22,18.4,18.4,0,0,1,2.14-.26l1.18,0a5.38,5.38,0,0,1,1.22.14,9.35,9.35,0,0,1,4.85,2.42,13.17,13.17,0,0,1,.94,1c.26.37.53.75.75,1.14a10.43,10.43,0,0,1,.57,1.22,6.88,6.88,0,0,1,.24.65,8.81,8.81,0,0,1,.22.87l.13.68-.16.86a17.6,17.6,0,0,1-4.13,8.32,25,25,0,0,1-6.83,5.34,50.23,50.23,0,0,1-14.94,4.93,100.59,100.59,0,0,1-15,1.51c-1.25,0-2.5.06-3.76.05s-2.49,0-3.86-.12c-2.49-.2-5-.37-7.46-.72s-4.93-.75-7.39-1.17-4.88-1-7.29-1.62a134.41,134.41,0,0,1-14.26-4.44c-2.34-.85-4.64-1.83-6.93-2.85-1.15-.52-2.29-1.05-3.43-1.62-.57-.27-1.14-.58-1.72-.88l-1-.53c-.38-.24-.76-.48-1.14-.74s-.74-.55-1.16-1l-.6-.59c-.21-.23-.42-.5-.62-.76a6.38,6.38,0,0,1-.6-.92c-.1-.18-.19-.34-.28-.52s-.17-.42-.25-.63l-.21-.64c-.05-.24-.1-.48-.13-.73a5.6,5.6,0,0,1-.07-1.48,7.21,7.21,0,0,1,.66-2.64,8.73,8.73,0,0,1,1.12-1.8,12.33,12.33,0,0,1,2.25-2.12,22.21,22.21,0,0,1,4-2.29c.65-.29,1.3-.56,1.94-.8s1.25-.46,2-.71l.24-.07.16,0c1-.16,2-.34,3-.48s2-.2,3.11-.18a25.76,25.76,0,0,1,6.41.77,22,22,0,0,1,6.15,2.71,18.8,18.8,0,0,1,2.72,2.12,16.74,16.74,0,0,1,1.24,1.28c.2.22.4.46.61.72l.3.41c.12.16.19.26.39.57l.83,1.32-.1,1.4a10.64,10.64,0,0,1-.18,1.35c0,.22-.1.44-.16.65l-.2.51c-.14.33-.3.66-.46,1s-.31.48-.48.73-.33.45-.5.67l-.46.51-.48.49-.45.4a21.67,21.67,0,0,1-3.42,2.43,54.88,54.88,0,0,1-6.44,3.19c-4.24,1.81-8.48,3.26-12.73,4.62q-3.19,1-6.4,1.92l-3.26.91-3.48.72a97.32,97.32,0,0,1-13.64,1.67,109.21,109.21,0,0,1-13.66-.19,93.58,93.58,0,0,1-13.63-2l-.93-.23-.84-.25-1.67-.5c-1.12-.31-2.23-.74-3.34-1.14a44.62,44.62,0,0,1-6.6-3.08,25.69,25.69,0,0,1-6.15-5l-.68-.81c-.22-.29-.43-.6-.64-.9a17.17,17.17,0,0,1-1.14-2,14.52,14.52,0,0,1-.83-2.3c-.1-.41-.18-.86-.25-1.31a8.58,8.58,0,0,1,0-1.79l0-.7.34-.68a11.83,11.83,0,0,1,4.47-5,11.39,11.39,0,0,1,6.56-1.51,18.18,18.18,0,0,1,5.51,1.26,23.51,23.51,0,0,1,2.39,1.08c.38.19.76.4,1.14.62s.71.41,1.2.74l-.24-.15a28.15,28.15,0,0,1,7.36,6.74,51.92,51.92,0,0,1,4.91,7.87,84.26,84.26,0,0,1,6.2,16.77c.67,2.81,1.43,5.58,2.14,8.37s1.24,5.67,1.86,8.5l1.53,8.54c.42,2.86.88,5.71,1.27,8.56q2.21,17.16,3.14,34.35C584.81,418.25,585.16,429.72,585,441.18Z"></path><path class="cls-4 DIScCXYq_11" d="M319.63,531.49a261.68,261.68,0,0,1,.07-31.06q.92-15.51,3.25-30.91a331.47,331.47,0,0,1,14.93-60.43A285.74,285.74,0,0,1,365,352.83a262.17,262.17,0,0,1,39.48-48.68,269.38,269.38,0,0,1,23.94-20.43,263,263,0,0,1,26.17-17.54A271,271,0,0,1,512.16,241c10.06-2.92,20.17-5.67,30.42-7.69,2.56-.51,5.12-1.06,7.68-1.52l7.72-1.28c5.13-.95,10.32-1.48,15.48-2.15a385.19,385.19,0,0,1,62.2-2.3l0,1c-20.58,1.95-41,4.49-61.16,8.25L567,236.79c-2.52.46-5,1-7.51,1.58L552,240c-2.48.58-5,1.25-7.42,1.88-9.92,2.42-19.67,5.4-29.33,8.61a350.79,350.79,0,0,0-55.76,24.27A250.85,250.85,0,0,0,410,310a255,255,0,0,0-39.51,46.37,279.94,279.94,0,0,0-27.88,54.48A326.69,326.69,0,0,0,326,470c-.94,5.05-1.72,10.13-2.44,15.23s-1.27,10.21-1.74,15.33a258.31,258.31,0,0,0-1.18,30.84Z"></path><path class="cls-4 DIScCXYq_12" d="M445.46,934.81a8.93,8.93,0,0,0,.4,3.28,10.53,10.53,0,0,0,1.52,3,14.59,14.59,0,0,0,5.25,4.33,28.23,28.23,0,0,0,6.64,2.37,48.08,48.08,0,0,0,7.11,1.13A92.14,92.14,0,0,0,481,949c4.89-.4,9.92-.69,14.88-1l29.84-2,29.85-1.87c9.94-.65,19.89-1.22,29.84-1.77,9.92-.71,19.94-1.44,29.91-2.07s20-1.32,30-1.88c5-.25,10.07-.55,15.15-.63s10.2-.1,15.56.21l-1,0c1.06-.05,1.86-.06,2.77-.08l2.64,0c1.74,0,3.48.07,5.22.17,3.47.18,6.93.5,10.38.93s6.91,1,10.35,1.77a102.2,102.2,0,0,1,10.28,2.67,71.47,71.47,0,0,1,19.81,9.39A41.48,41.48,0,0,1,745,960.7a32.52,32.52,0,0,1,5.74,10.45l-.22-.48c.15.33.21.5.3.72l.22.64c.15.41.28.82.41,1.23.24.82.46,1.65.65,2.48a29.58,29.58,0,0,1,.75,5.1,24,24,0,0,1-.23,5.34,17.5,17.5,0,0,1-1.76,5.3,14.62,14.62,0,0,1-3.51,4.35,9.22,9.22,0,0,1-1.08.81,9.61,9.61,0,0,1-1.14.69,11.8,11.8,0,0,1-1.18.59l-.6.26-.3.13-.21.09-.17.05a15.33,15.33,0,0,1-5,.69,8,8,0,0,1-2.63-.52,4.9,4.9,0,0,1-2.21-1.7l1.26-1.14a4,4,0,0,0,3.31.24,14,14,0,0,0,3.5-1.6l.64-.55a7.81,7.81,0,0,0,.67-.62,5.34,5.34,0,0,0,.6-.67,4.88,4.88,0,0,0,.53-.69,8.14,8.14,0,0,0,1.34-3,13.84,13.84,0,0,0-.44-6.76,28.29,28.29,0,0,0-1.3-3.48c-.26-.57-.53-1.14-.83-1.69l-.45-.8-.23-.37a1.51,1.51,0,0,0-.19-.27l-.22-.48c-2.56-4.63-6.74-8.06-11.74-10.68a60,60,0,0,0-8-3.3,87.21,87.21,0,0,0-8.69-2.3,139.57,139.57,0,0,0-18.34-2.53c-3.11-.26-6.24-.42-9.36-.54l-4.68-.12-4.5,0h-.77l-.25,0c-2.33-.16-4.62-.36-7-.44s-4.84-.25-7.28-.35c-4.88-.17-9.82-.38-14.76-.5-9.89-.25-19.83-.36-29.76-.26s-19.86.31-29.85.49-20,.11-29.94.08l-30,0-29.94-.12-15-.07a96,96,0,0,1-15.27-1.25A40,40,0,0,1,451.13,948a17.29,17.29,0,0,1-5.72-5.63,11.53,11.53,0,0,1-1.61-7.91Z"></path><path class="cls-4 DIScCXYq_13" d="M445.46,975.81a8.93,8.93,0,0,0,.4,3.28,10.53,10.53,0,0,0,1.52,3,14.59,14.59,0,0,0,5.25,4.33,28.23,28.23,0,0,0,6.64,2.37,48.08,48.08,0,0,0,7.11,1.13A92.14,92.14,0,0,0,481,990c4.89-.4,9.92-.69,14.88-1l29.84-2,29.85-1.87c9.94-.65,19.89-1.22,29.84-1.77,9.92-.71,19.94-1.44,29.91-2.07s20-1.32,30-1.88c5-.25,10.07-.55,15.15-.63s10.2-.1,15.56.21l-1,0c1.06-.05,1.86-.06,2.77-.08l2.64,0c1.74,0,3.48.07,5.22.17,3.47.18,6.93.5,10.38.93s6.91,1,10.35,1.77a102.2,102.2,0,0,1,10.28,2.67,71.47,71.47,0,0,1,19.81,9.39,41.48,41.48,0,0,1,8.52,7.89,32.52,32.52,0,0,1,5.74,10.45l-.22-.48c.15.33.21.5.3.72l.22.64c.15.41.28.82.41,1.23.24.82.46,1.65.65,2.48a29.58,29.58,0,0,1,.75,5.1,24,24,0,0,1-.23,5.34,17.5,17.5,0,0,1-1.76,5.3,14.62,14.62,0,0,1-3.51,4.35,9.22,9.22,0,0,1-1.08.81,9.61,9.61,0,0,1-1.14.69,11.8,11.8,0,0,1-1.18.59l-.6.26-.3.13-.21.09-.17,0a15.33,15.33,0,0,1-5,.69,8,8,0,0,1-2.63-.52,4.9,4.9,0,0,1-2.21-1.7l1.26-1.14a4,4,0,0,0,3.31.24,14,14,0,0,0,3.5-1.6l.64-.55a7.81,7.81,0,0,0,.67-.62,5.34,5.34,0,0,0,.6-.67,4.88,4.88,0,0,0,.53-.69,8.14,8.14,0,0,0,1.34-3,13.84,13.84,0,0,0-.44-6.76,28.29,28.29,0,0,0-1.3-3.48c-.26-.57-.53-1.14-.83-1.69l-.45-.8-.23-.37a1.51,1.51,0,0,0-.19-.27l-.22-.48c-2.56-4.63-6.74-8.06-11.74-10.68a60,60,0,0,0-8-3.3,87.21,87.21,0,0,0-8.69-2.3,139.57,139.57,0,0,0-18.34-2.53c-3.11-.26-6.24-.42-9.36-.54l-4.68-.12-4.5,0h-.77l-.25,0c-2.33-.16-4.62-.36-7-.44s-4.84-.25-7.28-.35c-4.88-.17-9.82-.38-14.76-.5-9.89-.25-19.83-.36-29.76-.26s-19.86.31-29.85.49-20,.11-29.94.08l-30,0-29.94-.12-15-.07a96,96,0,0,1-15.27-1.25A40,40,0,0,1,451.13,989a17.29,17.29,0,0,1-5.72-5.63,11.53,11.53,0,0,1-1.61-7.91Z"></path><path class="cls-4 DIScCXYq_14" d="M445.46,1056.81a8.93,8.93,0,0,0,.4,3.28,10.53,10.53,0,0,0,1.52,3,14.59,14.59,0,0,0,5.25,4.33,28.23,28.23,0,0,0,6.64,2.37,48.08,48.08,0,0,0,7.11,1.13,92.14,92.14,0,0,0,14.58,0c4.89-.4,9.92-.69,14.88-1l29.84-2,29.85-1.87c9.94-.65,19.89-1.22,29.84-1.77,9.92-.71,19.94-1.44,29.91-2.07s20-1.32,30-1.88c5-.25,10.07-.55,15.15-.63s10.2-.1,15.56.21l-1,0c1.06,0,1.86-.06,2.77-.08l2.64,0c1.74,0,3.48.07,5.22.17,3.47.18,6.93.5,10.38.93s6.91,1,10.35,1.77a102.2,102.2,0,0,1,10.28,2.67,71.47,71.47,0,0,1,19.81,9.39,41.48,41.48,0,0,1,8.52,7.89,32.52,32.52,0,0,1,5.74,10.45l-.22-.48c.15.33.21.5.3.72l.22.64c.15.41.28.82.41,1.23.24.82.46,1.65.65,2.48a29.58,29.58,0,0,1,.75,5.1,24,24,0,0,1-.23,5.34,17.5,17.5,0,0,1-1.76,5.3,14.62,14.62,0,0,1-3.51,4.35,9.22,9.22,0,0,1-1.08.81,9.61,9.61,0,0,1-1.14.69,11.8,11.8,0,0,1-1.18.59l-.6.26-.3.13-.21.09-.17,0a15.33,15.33,0,0,1-5,.69,8,8,0,0,1-2.63-.52,4.9,4.9,0,0,1-2.21-1.7l1.26-1.14a4,4,0,0,0,3.31.24,14,14,0,0,0,3.5-1.6l.64-.55a7.81,7.81,0,0,0,.67-.62,5.34,5.34,0,0,0,.6-.67,4.88,4.88,0,0,0,.53-.69,8.14,8.14,0,0,0,1.34-3,13.84,13.84,0,0,0-.44-6.76,28.29,28.29,0,0,0-1.3-3.48c-.26-.57-.53-1.14-.83-1.69l-.45-.8-.23-.37a1.51,1.51,0,0,0-.19-.27l-.22-.48c-2.56-4.63-6.74-8.06-11.74-10.68a60,60,0,0,0-8-3.3,87.21,87.21,0,0,0-8.69-2.3,139.57,139.57,0,0,0-18.34-2.53c-3.11-.26-6.24-.42-9.36-.54l-4.68-.12-4.5,0h-.77l-.25,0c-2.33-.16-4.62-.36-7-.44s-4.84-.25-7.28-.35c-4.88-.17-9.82-.38-14.76-.5-9.89-.25-19.83-.36-29.76-.26s-19.86.31-29.85.49-20,.11-29.94.08l-30,0-29.94-.12-15-.07a96,96,0,0,1-15.27-1.25,40,40,0,0,1-14.69-5.09,17.29,17.29,0,0,1-5.72-5.63,11.53,11.53,0,0,1-1.61-7.91Z"></path><path class="cls-4 DIScCXYq_15" d="M445.46,1016.81a8.93,8.93,0,0,0,.4,3.28,10.53,10.53,0,0,0,1.52,3,14.59,14.59,0,0,0,5.25,4.33,28.23,28.23,0,0,0,6.64,2.37,48.08,48.08,0,0,0,7.11,1.13,92.14,92.14,0,0,0,14.58,0c4.89-.4,9.92-.69,14.88-1l29.84-2,29.85-1.87c9.94-.65,19.89-1.22,29.84-1.77,9.92-.71,19.94-1.44,29.91-2.07s20-1.32,30-1.88c5-.25,10.07-.55,15.15-.63s10.2-.1,15.56.21l-1,0c1.06-.05,1.86-.06,2.77-.08l2.64,0c1.74,0,3.48.07,5.22.17,3.47.18,6.93.5,10.38.93s6.91,1,10.35,1.77a102.2,102.2,0,0,1,10.28,2.67,71.47,71.47,0,0,1,19.81,9.39,41.48,41.48,0,0,1,8.52,7.89,32.52,32.52,0,0,1,5.74,10.45l-.22-.48c.15.33.21.5.3.72l.22.64c.15.41.28.82.41,1.23.24.82.46,1.65.65,2.48a29.58,29.58,0,0,1,.75,5.1,24,24,0,0,1-.23,5.34,17.5,17.5,0,0,1-1.76,5.3,14.62,14.62,0,0,1-3.51,4.35,9.22,9.22,0,0,1-1.08.81,9.61,9.61,0,0,1-1.14.69,11.8,11.8,0,0,1-1.18.59l-.6.26-.3.13-.21.09-.17,0a15.33,15.33,0,0,1-5,.69,8,8,0,0,1-2.63-.52,4.9,4.9,0,0,1-2.21-1.7l1.26-1.14a4,4,0,0,0,3.31.24,14,14,0,0,0,3.5-1.6l.64-.55a7.81,7.81,0,0,0,.67-.62,5.34,5.34,0,0,0,.6-.67,4.88,4.88,0,0,0,.53-.69,8.14,8.14,0,0,0,1.34-3,13.84,13.84,0,0,0-.44-6.76,28.29,28.29,0,0,0-1.3-3.48c-.26-.57-.53-1.14-.83-1.69l-.45-.8-.23-.37a1.51,1.51,0,0,0-.19-.27l-.22-.48c-2.56-4.63-6.74-8.06-11.74-10.68a60,60,0,0,0-8-3.3,87.21,87.21,0,0,0-8.69-2.3,139.57,139.57,0,0,0-18.34-2.53c-3.11-.26-6.24-.42-9.36-.54l-4.68-.12-4.5,0h-.77l-.25,0c-2.33-.16-4.62-.36-7-.44s-4.84-.25-7.28-.35c-4.88-.17-9.82-.38-14.76-.5-9.89-.25-19.83-.36-29.76-.26s-19.86.31-29.85.49-20,.11-29.94.08l-30,0-29.94-.12-15-.07a96,96,0,0,1-15.27-1.25,40,40,0,0,1-14.69-5.09,17.29,17.29,0,0,1-5.72-5.63,11.53,11.53,0,0,1-1.61-7.91Z"></path><path class="cls-4 DIScCXYq_16" d="M462,1099.14c1.22,2.5,2.44,5,3.79,7.37s2.65,4.75,4.14,6.93a46,46,0,0,0,4.69,6,14.63,14.63,0,0,0,4.83,3.59l1.33,1.15-.17-.21v0s0,0,0,0l.2.07c.22.07.35.15.61.23.44.18,1,.33,1.49.51a27.5,27.5,0,0,0,3.54.79c.63.11,1.25.21,1.91.26s1.28.16,2,.18l2,.14,2.05,0a106.38,106.38,0,0,0,16.91-1.36c6.15-.77,12.37-1.61,18.57-2.25,3.1-.34,6.2-.72,9.3-1l9.32-.89c3.11-.32,6.22-.58,9.33-.82l4.67-.37c1.51-.14,3.21-.22,4.74-.28,6.23-.24,12.44-.37,18.66-.52s12.45-.08,18.72,0c3.14.06,6.28.14,9.49.26,1.57,0,3.24.14,4.87.21.87,0,1.74.12,2.62.19l1.54.16,1.69.21-1.11-.1c4.53.39,9.07.72,13.6,1.15s9,.87,13.58,1.35,9.12,1.1,13.69,1.77l6.86,1c1.15.18,2.27.32,3.43.54.91.2,1.93.37,2.93.53,8.13,1.16,16.65,1.54,24.61,0a40.43,40.43,0,0,0,5.86-1.55,26.36,26.36,0,0,0,5.53-2.58c2-1.21,3.8-2.36,5.7-3.58a30.19,30.19,0,0,0,5.13-4l1.26.6a14.74,14.74,0,0,1-2.06,2.93c-.76.87-1.55,1.71-2.35,2.52-1.62,1.62-3.33,3.16-5,4.64a35.41,35.41,0,0,1-11.93,7c-8.71,3.16-18,3.94-27.15,3.62l-13.58-.88c-4.5-.27-9-.6-13.53-.74l-27.12-1.1h-.12c-2.9-.29-6.06-.3-9.12-.35s-6.17,0-9.26,0c-6.18,0-12.36.12-18.54.23l-18.56.28c-3.08,0-6.16.26-9.25.4l-9.26.5-37.05,2a98.68,98.68,0,0,1-18.74-.4,50,50,0,0,1-9.26-1.95,32.09,32.09,0,0,1-4.47-1.75,21.37,21.37,0,0,1-2.12-1.21,11.07,11.07,0,0,1-2-1.63l.22.19a22.37,22.37,0,0,1-5.9-6.27,45.33,45.33,0,0,1-4-7.43,78.18,78.18,0,0,1-2.92-7.82c-.84-2.65-1.58-5.32-2.18-8Z"></path><path class="cls-4 DIScCXYq_17" d="M523.91,1152.92a25.18,25.18,0,0,0,7.35,11.22l1.17,1c.43.28.85.56,1.25.84a8.05,8.05,0,0,0,1.26.78l1.28.71c1,.36,1.75.84,2.69,1.15l1.4.47.68.24.77.2c1,.26,2.06.59,3,.79s1.93.34,2.92.51a40.06,40.06,0,0,0,5.89.48c.48,0,1,0,1.41,0l1.65,0,3.67,0,7.32.25c1.22,0,2.44.13,3.66.2l1.82.11.46,0a.73.73,0,0,0,.2,0l-.09,0h.91c2.43,0,4.87,0,7.3.09,4.85,0,9.72.29,14.43.41l7,.21c2.35.06,4.72.07,7.07.16s4.67.11,7,.11,4.51.06,6.42,0l1-.08,3.33.09,3.43.06h6.81c2.25,0,4.43-.12,6.5-.2l1.5-.1,1.4-.14c.4,0,.77-.1,1.18-.13a7.94,7.94,0,0,1,.83,0l.83-.4,0,0h.17l.33-.07c.22,0,.47-.13.71-.18.49-.15,1-.32,1.48-.51a22.35,22.35,0,0,0,3-1.27c.5-.24,1-.51,1.42-.79s.92-.56,1.4-.85.86-.64,1.31-1,.81-.7,1.26-1.06.76-.78,1.17-1.18.68-.87,1.07-1.32.64-.94,1-1.44a13.24,13.24,0,0,0,.89-1.66c.58-1.21,1.1-2.45,1.63-3.72a28.26,28.26,0,0,0,1.2-3.92l1.39-.22a29.59,29.59,0,0,1-.21,8.52,22.24,22.24,0,0,1-2.77,8.13,25.93,25.93,0,0,1-5.52,6.59,29.67,29.67,0,0,1-3.44,2.58,27.24,27.24,0,0,1-3.8,2.1l.11-.05a29,29,0,0,1-7.19,2.42q-3.63.8-7.27,1.27c-4.86.66-9.72,1.08-14.62,1.32h.11a145.06,145.06,0,0,1-14.82.81q-3.69.06-7.38,0c-2.46,0-4.91,0-7.38-.14-4.92-.21-9.81-.51-14.71-.82l-7.34-.49-.92-.06c-.37,0-.63-.07-.95-.11l-1.82-.23-3.65-.47-14.66-1.9a46.09,46.09,0,0,1-14.18-4.89c-.27-.14-.56-.27-.83-.42l-.8-.51-1.61-1a16.76,16.76,0,0,1-1.53-1.13l-1.48-1.19a28.66,28.66,0,0,1-4.9-5.81,25,25,0,0,1-3.89-14.48Z"></path><style data-made-with="vivus-instant">.DIScCXYq_0{stroke-dasharray:2196 2198;stroke-dashoffset:2197;animation:DIScCXYq_draw 666ms linear 0ms forwards;}.DIScCXYq_1{stroke-dasharray:213 215;stroke-dashoffset:214;animation:DIScCXYq_draw 666ms linear 19ms forwards;}.DIScCXYq_2{stroke-dasharray:282 284;stroke-dashoffset:283;animation:DIScCXYq_draw 666ms linear 39ms forwards;}.DIScCXYq_3{stroke-dasharray:290 292;stroke-dashoffset:291;animation:DIScCXYq_draw 666ms linear 58ms forwards;}.DIScCXYq_4{stroke-dasharray:280 282;stroke-dashoffset:281;animation:DIScCXYq_draw 666ms linear 78ms forwards;}.DIScCXYq_5{stroke-dasharray:290 292;stroke-dashoffset:291;animation:DIScCXYq_draw 666ms linear 98ms forwards;}.DIScCXYq_6{stroke-dasharray:265 267;stroke-dashoffset:266;animation:DIScCXYq_draw 666ms linear 117ms forwards;}.DIScCXYq_7{stroke-dasharray:234 236;stroke-dashoffset:235;animation:DIScCXYq_draw 666ms linear 137ms forwards;}.DIScCXYq_8{stroke-dasharray:4023 4025;stroke-dashoffset:4024;animation:DIScCXYq_draw 666ms linear 156ms forwards;}.DIScCXYq_9{stroke-dasharray:324 326;stroke-dashoffset:325;animation:DIScCXYq_draw 666ms linear 176ms forwards;}.DIScCXYq_10{stroke-dasharray:1123 1125;stroke-dashoffset:1124;animation:DIScCXYq_draw 666ms linear 196ms forwards;}.DIScCXYq_11{stroke-dasharray:994 996;stroke-dashoffset:995;animation:DIScCXYq_draw 666ms linear 215ms forwards;}.DIScCXYq_12{stroke-dasharray:716 718;stroke-dashoffset:717;animation:DIScCXYq_draw 666ms linear 235ms forwards;}.DIScCXYq_13{stroke-dasharray:716 718;stroke-dashoffset:717;animation:DIScCXYq_draw 666ms linear 254ms forwards;}.DIScCXYq_14{stroke-dasharray:716 718;stroke-dashoffset:717;animation:DIScCXYq_draw 666ms linear 274ms forwards;}.DIScCXYq_15{stroke-dasharray:716 718;stroke-dashoffset:717;animation:DIScCXYq_draw 666ms linear 294ms forwards;}.DIScCXYq_16{stroke-dasharray:579 581;stroke-dashoffset:580;animation:DIScCXYq_draw 666ms linear 313ms forwards;}.DIScCXYq_17{stroke-dasharray:350 352;stroke-dashoffset:351;animation:DIScCXYq_draw 666ms linear 333ms forwards;}@keyframes DIScCXYq_draw{100%{stroke-dashoffset:0;}}@keyframes DIScCXYq_fade{0%{stroke-opacity:1;}92.3076923076923%{stroke-opacity:1;}100%{stroke-opacity:0;}}</style></svg>